<?xml version="1.0" encoding="utf-8"?>
<!-- Generator: Adobe Illustrator 15.1.0, SVG Export Plug-In . SVG Version: 6.00 Build 0)  -->
<!DOCTYPE svg PUBLIC "-//W3C//DTD SVG 1.1//EN" "http://www.w3.org/Graphics/SVG/1.1/DTD/svg11.dtd">
<svg version="1.1" id="Layer_1" xmlns="http://www.w3.org/2000/svg" xmlns:xlink="http://www.w3.org/1999/xlink" x="0px" y="0px"
	 width="72px" height="72px" viewBox="0 0 72 72" enable-background="new 0 0 72 72" xml:space="preserve">
<path fill="#333333" d="M71.92,38.555l-0.004,28.567c0,1.413-1.147,2.56-2.558,2.56h-9.075c-1.415,0-2.562-1.146-2.562-2.56
	l0.002-28.567c0-1.415,1.149-2.561,2.56-2.561h9.075C70.772,35.994,71.92,37.14,71.92,38.555"/>
<path fill="#333333" d="M43.143,4.87L43.14,67.132c0,1.414-1.146,2.562-2.563,2.562h-9.071c-1.414,0-2.561-1.147-2.561-2.562
	L28.948,4.87c0-1.414,1.146-2.563,2.56-2.563h9.072C41.995,2.308,43.143,3.457,43.143,4.87"/>
<path fill="#333333" d="M14.364,19.096l-0.002,48.036c0,1.414-1.145,2.562-2.56,2.562H2.729c-1.416,0-2.563-1.147-2.563-2.562
	l0.002-48.036c0-1.415,1.147-2.562,2.561-2.562h9.072C13.217,16.534,14.364,17.681,14.364,19.096"/>
</svg>
