<?xml version="1.0" encoding="utf-8"?>
<!-- Generator: Adobe Illustrator 15.1.0, SVG Export Plug-In . SVG Version: 6.00 Build 0)  -->
<!DOCTYPE svg PUBLIC "-//W3C//DTD SVG 1.1//EN" "http://www.w3.org/Graphics/SVG/1.1/DTD/svg11.dtd">
<svg version="1.1" id="Layer_1" xmlns="http://www.w3.org/2000/svg" xmlns:xlink="http://www.w3.org/1999/xlink" x="0px" y="0px"
	 width="72px" height="72px" viewBox="0 0 72 72" enable-background="new 0 0 72 72" xml:space="preserve">
<path fill="#333333" d="M36.5,70.79c-12.222,0-21.439-8.916-21.439-20.738c0-3.375,0.931-8.099,2.553-12.96
	c1.652-4.947,9.283-28.945,9.36-29.188l1.836-5.782c0.38-1.187,2.046-1.224,2.478-0.055l7.107,19.322
	c0.188,0.501,0.861,0.587,1.167,0.149l6.046-8.667c0.713-1.025,2.293-0.773,2.656,0.419l1.132,3.733
	c0.057,0.183,5.521,18.198,6.18,20.19l0.059,0.178c0.69,2.084,2.304,6.964,2.304,12.66C57.938,60.067,49.325,70.79,36.5,70.79
	 M33.031,28.267c-0.162-0.436-0.782-0.423-0.925,0.017c-1.656,5.197-4.111,12.18-4.784,14.198c-1.017,3.046-1.625,5.295-1.625,7.236
	c0,5.113,3.712,10.289,10.802,10.289c6.461,0,10.802-5.32,10.802-10.289c0-3.392-1.014-5.725-1.446-7.028l-0.042-0.139
	c-0.282-0.852-1.966-6.547-3.134-10.373c-0.117-0.392-0.633-0.47-0.865-0.136l-3.356,4.708c-0.488,0.686-1.539,0.572-1.868-0.199
	L33.031,28.267z"/>
</svg>
