<?xml version="1.0" encoding="utf-8"?>
<!-- Generator: Adobe Illustrator 15.1.0, SVG Export Plug-In . SVG Version: 6.00 Build 0)  -->
<!DOCTYPE svg PUBLIC "-//W3C//DTD SVG 1.1//EN" "http://www.w3.org/Graphics/SVG/1.1/DTD/svg11.dtd">
<svg version="1.1" id="Layer_1" xmlns="http://www.w3.org/2000/svg" xmlns:xlink="http://www.w3.org/1999/xlink" x="0px" y="0px"
	 width="72px" height="72px" viewBox="0 0 72 72" enable-background="new 0 0 72 72" xml:space="preserve">
<path fill="#000111" d="M71.142,23.19L36.121,8.496c-0.317-0.133-0.675-0.131-0.992,0.004L0.857,23.187
	c-0.467,0.201-0.769,0.66-0.769,1.167v8.673c0,0.699,0.568,1.269,1.268,1.269h4.57c0.699,0,1.268,0.568,1.268,1.268v27.295
	c0,0.7,0.568,1.269,1.269,1.269H19.63c0.702,0,1.27-0.568,1.27-1.269V41.03c0-0.699,0.568-1.27,1.27-1.27h12.186
	c0.7,0,1.269,0.57,1.269,1.27v21.828c0,0.7,0.568,1.269,1.269,1.269h26.902c0.7,0,1.269-0.568,1.269-1.269V35.563
	c0-0.699,0.568-1.268,1.271-1.268h4.315c0.7,0,1.269-0.57,1.269-1.269v-8.666C71.919,23.85,71.613,23.387,71.142,23.19"/>
</svg>
