<?xml version="1.0" encoding="utf-8"?>
<!-- Generator: Adobe Illustrator 15.1.0, SVG Export Plug-In . SVG Version: 6.00 Build 0)  -->
<!DOCTYPE svg PUBLIC "-//W3C//DTD SVG 1.1//EN" "http://www.w3.org/Graphics/SVG/1.1/DTD/svg11.dtd">
<svg version="1.1" id="Layer_1" xmlns="http://www.w3.org/2000/svg" xmlns:xlink="http://www.w3.org/1999/xlink" x="0px" y="0px"
	 width="72px" height="72px" viewBox="0 0 72 72" enable-background="new 0 0 72 72" xml:space="preserve">
<path fill="#191819" d="M55.936,65.246H1.953c-0.925,0-1.678-0.753-1.678-1.68v-5.618c0-0.926,0.752-1.679,1.678-1.679h53.983
	c0.93,0,1.68,0.753,1.68,1.679v5.618C57.615,64.493,56.865,65.246,55.936,65.246"/>
<path fill="#191819" d="M55.907,45.495H1.81c-0.926,0-1.678-0.752-1.678-1.677v-5.619c0-0.927,0.752-1.677,1.678-1.677h54.097
	c0.93,0,1.681,0.75,1.681,1.677v5.619C57.588,44.743,56.837,45.495,55.907,45.495"/>
<path fill="#191819" d="M41.543,25.747H1.81c-0.926,0-1.678-0.753-1.678-1.679V18.45c0-0.926,0.752-1.678,1.678-1.678h39.733
	c0.93,0,1.68,0.752,1.68,1.678v5.618C43.223,24.994,42.473,25.747,41.543,25.747"/>
<path fill="#F21819" d="M70.156,24.851H55.791c-0.991,0-1.797-0.804-1.797-1.795V8.688c0-0.99,0.806-1.795,1.797-1.795h14.365
	c0.991,0,1.797,0.805,1.797,1.795v14.368C71.953,24.047,71.147,24.851,70.156,24.851"/>
</svg>
