<?xml version="1.0" encoding="utf-8"?>
<!-- Generator: Adobe Illustrator 19.2.1, SVG Export Plug-In . SVG Version: 6.00 Build 0)  -->
<svg version="1.1" id="Layer_1" xmlns="http://www.w3.org/2000/svg" xmlns:xlink="http://www.w3.org/1999/xlink" x="0px" y="0px"
	 viewBox="0 0 612 792" style="enable-background:new 0 0 612 792;" xml:space="preserve">
<style type="text/css">
	.st0{fill:#191919;}
</style>
<path class="st0" d="M306.2,89C137.3,89,0.4,226.4,0.4,395.8s136.9,306.8,305.8,306.8c168.9,0,305.8-137.4,305.8-306.8
	S475.1,89,306.2,89z M306.6,181.6c55.1,0,99.8,44.7,99.8,99.8s-44.7,99.8-99.8,99.8s-99.8-44.7-99.8-99.8S251.5,181.6,306.6,181.6z
	 M468.8,548.8c-18.2,22.5-74.3,72.5-162.2,72.5s-144.6-50-162.8-72.5c0,0,0-17.6,0-27.8c0-45.7,48.8-88,93.3-88
	c28.1,0,54.1,0,69.5,0c0,0,4.9,0,14.3,0c11.6,0,30,0,54.5,0c44.5,0,93.3,42.3,93.3,88C468.8,531.2,468.8,548.8,468.8,548.8z"/>
</svg>
