<?xml version="1.0" encoding="utf-8"?>
<!-- Generator: Adobe Illustrator 15.1.0, SVG Export Plug-In . SVG Version: 6.00 Build 0)  -->
<!DOCTYPE svg PUBLIC "-//W3C//DTD SVG 1.1//EN" "http://www.w3.org/Graphics/SVG/1.1/DTD/svg11.dtd">
<svg version="1.1" id="Layer_1" xmlns="http://www.w3.org/2000/svg" xmlns:xlink="http://www.w3.org/1999/xlink" x="0px" y="0px"
	 width="72px" height="72px" viewBox="0 0 72 72" enable-background="new 0 0 72 72" xml:space="preserve">
<path fill="#333333" d="M40.064,9.344V5.929h7.197c0.596,0,1.081-0.483,1.081-1.08V1.783c0-0.597-0.485-1.081-1.081-1.081H27.5
	c-0.596,0-1.079,0.484-1.079,1.081V4.85c0,0.596,0.483,1.08,1.079,1.08h7.338v3.335C18.593,10.271,5.71,23.735,5.71,40.231
	c0,17.15,13.914,31.066,31.067,31.066c17.148,0,31.067-13.916,31.067-31.066C67.845,24.191,55.67,10.988,40.064,9.344z
	 M41.953,44.115c0,0.727-0.565,1.292-1.292,1.292H27.714c-0.727,0-1.293-0.565-1.293-1.292v-2.59c0-0.727,0.567-1.294,1.293-1.294
	h9.063V25.992c0-0.729,0.565-1.294,1.295-1.294h2.589c0.727,0,1.292,0.565,1.292,1.294V44.115z"/>
</svg>
